# xmcd CD Database Entry
#
# Track frame offsets:
# 150
# 54996
# 86271
# 127226
# 163297
# 171399
# 187212
# 196609
# 220151
# 230850
# 244010
# 260059
# 276819
# 284251
# 307196
#
# Disc length: 4653 seconds
#
# Revision: 2
# Processed by: cddbd v1.4PL0 Copyright (c) Steve Scherf et al.
# Submitted via: tcd 2.0b
#
DISCID=eb122b0f
DTITLE=Dekanatskantorei Celle - Wolfgang Amadeus Mozart Klarinettenk
DTITLE=onzert A-Dur Reqium d-moll
DYEAR=1900
DGENRE=
TTITLE0=Allegro
TTITLE1=Adagio
TTITLE2=Rondo-Allegro
TTITLE3=Requim
TTITLE4=Dies irae
TTITLE5=Tuba mirum
TTITLE6=Rex tremendae
TTITLE7=Ricordare
TTITLE8=Confutatis
TTITLE9=Lacrimosa
TTITLE10=Domine Jesu Christe
TTITLE11=Hostias
TTITLE12=Sanctus
TTITLE13=Benedictus
TTITLE14=Agnus Dei
EXTD=
EXTT0=
EXTT1=
EXTT2=
EXTT3=
EXTT4=
EXTT5=
EXTT6=
EXTT7=
EXTT8=
EXTT9=
EXTT10=
EXTT11=
EXTT12=
EXTT13=
EXTT14=
PLAYORDER=
